<?xml version="1.0" ?><svg id="Слой_1" style="enable-background:new 0 0 500 500;" version="1.1" viewBox="0 0 500 500" xml:space="preserve" xmlns="http://www.w3.org/2000/svg" xmlns:xlink="http://www.w3.org/1999/xlink"><style type="text/css">
	.st0{fill:#E1331A;}
	.st1{fill:#1E1F1D;}
</style><g><g><g><path class="st0" d="M255.5,371.6c-0.5,0-1-0.1-1.5-0.4l-78.7-45.4c-0.9-0.5-1.5-1.5-1.5-2.6v-39.9c0-1.7,1.4-3,3-3s3,1.4,3,3     v38.1l75.7,43.7l75.7-43.7v-39.6c0-1.7,1.4-3,3-3s3,1.4,3,3v41.3c0,1.1-0.6,2.1-1.5,2.6L257,371.2     C256.6,371.5,256.1,371.6,255.5,371.6z"/><path class="st0" d="M176.8,235.3c-1.1,0-2.2-0.6-2.7-1.7c-0.7-1.5-0.1-3.3,1.4-4l78.7-38.2c0.8-0.4,1.8-0.4,2.6,0l78.7,38.2     c1.5,0.7,2.1,2.5,1.4,4c-0.7,1.5-2.5,2.1-4,1.4l-77.4-37.5L178.1,235C177.7,235.2,177.3,235.3,176.8,235.3z"/><path class="st0" d="M255.4,370.1c-1.7,0-3-1.4-3-3v-92.9l-76.5-39.8c-1.5-0.8-2.1-2.6-1.3-4.1c0.8-1.5,2.6-2.1,4.1-1.3     l78.1,40.6c1,0.5,1.6,1.6,1.6,2.7v94.7C258.4,368.8,257.1,370.1,255.4,370.1z"/><path class="st0" d="M256.3,275.4c-1.1,0-2.2-0.6-2.7-1.6c-0.8-1.5-0.2-3.3,1.3-4.1l75.9-39.1c1.5-0.8,3.3-0.2,4.1,1.3     c0.8,1.5,0.2,3.3-1.3,4.1l-75.9,39.1C257.3,275.3,256.8,275.4,256.3,275.4z"/></g><path class="st0" d="M287.8,308.2c-0.8,0-1.6-0.3-2.1-0.9l-32.2-32.4c-0.7-0.7-1-1.6-0.8-2.6c0.1-1,0.7-1.8,1.6-2.2l78-40.4    c1.2-0.6,2.6-0.4,3.5,0.6l32.2,32.4c0.7,0.7,1,1.6,0.8,2.6c-0.1,1-0.7,1.8-1.6,2.2l-78,40.4C288.8,308.1,288.3,308.2,287.8,308.2z     M260.7,273.6l27.7,27.9l72.4-37.5l-27.7-27.9L260.7,273.6z"/><path class="st0" d="M177.3,234.9c-0.2,0-0.4,0-0.6-0.1l-28-5.2c-1.3-0.2-2.3-1.3-2.4-2.6c-0.2-1.3,0.5-2.6,1.7-3.1l78-38    c0.6-0.3,1.2-0.4,1.9-0.3l28,5.2c1.3,0.2,2.3,1.3,2.4,2.6c0.2,1.3-0.5,2.6-1.7,3.1l-78,38C178.2,234.8,177.7,234.9,177.3,234.9z     M158.8,225.4l18,3.3l68.8-33.6l-18-3.3L158.8,225.4z"/><path class="st0" d="M222.6,308.8c-0.5,0-1-0.1-1.4-0.3L143,267.8c-0.9-0.4-1.4-1.3-1.6-2.2c-0.1-0.9,0.2-1.9,0.8-2.6l33-33.3    c0.5-0.5,1.3-0.9,2-0.9c0.5,0,1.1,0.1,1.6,0.3l78.1,40.6c0.9,0.4,1.4,1.3,1.6,2.2c0.1,0.9-0.2,1.9-0.8,2.6l-33,33.3    C224.2,308.5,223.4,308.8,222.6,308.8z M149.4,264.3L222,302l28.5-28.8L178,235.4L149.4,264.3z"/><path class="st0" d="M334.4,235.3c-0.4,0-0.9-0.1-1.3-0.3l-79.6-37.8c-1.2-0.6-1.9-1.8-1.7-3.1c0.1-1.3,1.1-2.3,2.4-2.6l31.3-7    c0.7-0.1,1.3-0.1,2,0.2l79.5,37.8c1.2,0.6,1.9,1.8,1.7,3.1c-0.1,1.3-1.1,2.3-2.3,2.6l-31.2,7C334.9,235.2,334.7,235.3,334.4,235.3    z M264.1,195.5l70.7,33.6l21.6-4.8l-70.6-33.6L264.1,195.5z"/></g><g><path class="st1" d="M386.2,322c-0.5,0-1.1-0.1-1.5-0.4l-36.2-21.2c-1.4-0.8-1.9-2.7-1.1-4.1c0.8-1.4,2.7-1.9,4.1-1.1l34.6,20.3    l56.8-32.8v-65.5l-56.8-27.6l-33.7,16.3c-1.5,0.7-3.3,0.1-4-1.4c-0.7-1.5-0.1-3.3,1.4-4l35-17c0.8-0.4,1.8-0.4,2.6,0l59.9,29    c1,0.5,1.7,1.6,1.7,2.7v69.1c0,1.1-0.6,2.1-1.5,2.6l-59.9,34.6C387.2,321.9,386.7,322,386.2,322z"/><path class="st1" d="M386.1,320.9c-1.7,0-3-1.4-3-3v-70.2l-15.3-8c-1.5-0.8-2.1-2.6-1.3-4.1c0.8-1.5,2.6-2.1,4.1-1.3l17,8.8    c1,0.5,1.6,1.6,1.6,2.7v72C389.1,319.5,387.7,320.9,386.1,320.9z"/><path class="st1" d="M386.8,248.8c-1.1,0-2.2-0.6-2.7-1.6c-0.8-1.5-0.2-3.3,1.3-4.1l57.7-29.8c1.5-0.8,3.3-0.2,4.1,1.3    c0.8,1.5,0.2,3.3-1.3,4.1l-57.7,29.8C387.7,248.7,387.2,248.8,386.8,248.8z"/></g><g><path class="st1" d="M123.4,322c-0.5,0-1-0.1-1.5-0.4L62,287c-0.9-0.5-1.5-1.5-1.5-2.6v-69.1c0-1.2,0.7-2.2,1.7-2.7l59.9-29    c0.8-0.4,1.8-0.4,2.6,0l35,17c1.5,0.7,2.1,2.5,1.4,4c-0.7,1.5-2.5,2.1-4,1.4l-33.7-16.3l-56.8,27.6v65.5l56.8,32.8l34.6-20.3    c1.4-0.8,3.3-0.4,4.1,1.1c0.8,1.4,0.4,3.3-1.1,4.1l-36.2,21.2C124.4,321.8,123.9,322,123.4,322z"/><path class="st1" d="M123.5,320.9c-1.7,0-3-1.4-3-3v-72c0-1.1,0.6-2.2,1.6-2.7l17-8.8c1.5-0.8,3.3-0.2,4.1,1.3    c0.8,1.5,0.2,3.3-1.3,4.1l-15.3,8v70.2C126.5,319.5,125.2,320.9,123.5,320.9z"/><path class="st1" d="M122.8,248.8c-0.5,0-0.9-0.1-1.4-0.3l-57.7-29.8c-1.5-0.8-2.1-2.6-1.3-4.1c0.8-1.5,2.6-2.1,4.1-1.3l57.7,29.8    c1.5,0.8,2.1,2.6,1.3,4.1C124.9,248.2,123.9,248.8,122.8,248.8z"/></g></g></svg>