<?xml version="1.0" ?><svg id="Слой_1" style="enable-background:new 0 0 500 500;" version="1.1" viewBox="0 0 500 500" xml:space="preserve" xmlns="http://www.w3.org/2000/svg" xmlns:xlink="http://www.w3.org/1999/xlink"><style type="text/css">
	.st0{fill:#1E1F1D;}
	.st1{fill:#E13217;}
</style><g><path class="st0" d="M322.7,295.9h-55.5c-1.4,0-2.5-1.1-2.5-2.5c0-1.4,1.1-2.5,2.5-2.5h53V156H133.1v134.9h76.5   c1.4,0,2.5,1.1,2.5,2.5c0,1.4-1.1,2.5-2.5,2.5h-79c-1.4,0-2.5-1.1-2.5-2.5v-140c0-1.4,1.1-2.5,2.5-2.5h192.1c1.4,0,2.5,1.1,2.5,2.5   v140C325.2,294.8,324.1,295.9,322.7,295.9z"/><path class="st0" d="M320.4,170.2h-94.9c-1.4,0-2.5-1.1-2.5-2.5c0-1.4,1.1-2.5,2.5-2.5h94.9c1.4,0,2.5,1.1,2.5,2.5   C322.9,169.1,321.7,170.2,320.4,170.2z"/><path class="st1" d="M199.4,295.9h-33.2c-1.4,0-2.5-1.1-2.5-2.5v-42.7c0-1.4,1.1-2.5,2.5-2.5h33.2c1.4,0,2.5,1.1,2.5,2.5v42.7   C201.9,294.8,200.8,295.9,199.4,295.9z M168.7,290.9h28.2v-37.7h-28.2V290.9z"/><path class="st1" d="M199.4,253.2H178c-1.4,0-2.5-1.1-2.5-2.5V227c0-1.4,1.1-2.5,2.5-2.5h21.3c1.4,0,2.5,1.1,2.5,2.5v23.7   C201.9,252.1,200.8,253.2,199.4,253.2z M180.5,248.2h16.3v-18.7h-16.3V248.2z"/><path class="st0" d="M199.4,170.2c-1.4,0-2.5-1.1-2.5-2.5v-14.2c0-1.4,1.1-2.5,2.5-2.5s2.5,1.1,2.5,2.5v14.2   C201.9,169.1,200.8,170.2,199.4,170.2z"/><path class="st0" d="M168.5,333.9H99.7c-1,0-1.8-0.6-2.3-1.4c-0.4-0.9-0.3-1.9,0.3-2.7l30.8-38c0.5-0.6,1.2-0.9,1.9-0.9h68.8   c1,0,1.8,0.6,2.3,1.4c0.4,0.9,0.3,1.9-0.3,2.7l-30.8,38C170,333.6,169.3,333.9,168.5,333.9z M105,328.9h62.3l26.8-32.9h-62.3   L105,328.9z"/><g><path class="st0" d="M237.4,333.9c-14.5,0-26.2-11.8-26.2-26.2c0-14.5,11.8-26.2,26.2-26.2s26.2,11.8,26.2,26.2    C263.6,322.1,251.8,333.9,237.4,333.9z M237.4,286.4c-11.7,0-21.2,9.5-21.2,21.2c0,11.7,9.5,21.2,21.2,21.2s21.2-9.5,21.2-21.2    C258.6,295.9,249.1,286.4,237.4,286.4z"/><path class="st0" d="M237.4,321.4c-7.6,0-13.8-6.2-13.8-13.8c0-7.6,6.2-13.8,13.8-13.8s13.8,6.2,13.8,13.8    C251.1,315.2,244.9,321.4,237.4,321.4z M237.4,298.9c-4.8,0-8.7,3.9-8.7,8.7c0,4.8,3.9,8.7,8.7,8.7c4.8,0,8.7-3.9,8.7-8.7    C246.1,302.8,242.2,298.9,237.4,298.9z"/></g><g><path class="st0" d="M377.4,333.9c-14.5,0-26.2-11.8-26.2-26.2c0-14.5,11.8-26.2,26.2-26.2c14.5,0,26.2,11.8,26.2,26.2    C403.6,322.1,391.8,333.9,377.4,333.9z M377.4,286.4c-11.7,0-21.2,9.5-21.2,21.2c0,11.7,9.5,21.2,21.2,21.2    c11.7,0,21.2-9.5,21.2-21.2C398.6,295.9,389.1,286.4,377.4,286.4z"/><path class="st0" d="M377.4,321.4c-7.6,0-13.8-6.2-13.8-13.8c0-7.6,6.2-13.8,13.8-13.8c7.6,0,13.8,6.2,13.8,13.8    C391.1,315.2,384.9,321.4,377.4,321.4z M377.4,298.9c-4.8,0-8.7,3.9-8.7,8.7c0,4.8,3.9,8.7,8.7,8.7c4.8,0,8.7-3.9,8.7-8.7    C386.1,302.8,382.2,298.9,377.4,298.9z"/></g><path class="st0" d="M347.3,333.9c-14.5,0-26.2-11.8-26.2-26.2c0-2.1,0.2-4.1,0.7-6.1c0.3-1.3,1.7-2.2,3-1.9c1.3,0.3,2.2,1.7,1.9,3   c-0.4,1.6-0.6,3.3-0.6,5c0,11.7,9.5,21.2,21.2,21.2c1.6,0,3.1-0.2,4.6-0.5c1.3-0.3,2.7,0.6,3,1.9c0.3,1.4-0.6,2.7-1.9,3   C351.1,333.7,349.2,333.9,347.3,333.9z"/><path class="st0" d="M207.8,333.9c-12.4,0-23.2-8.8-25.7-21c-0.3-1.4,0.6-2.7,2-3c1.4-0.3,2.7,0.6,3,2c2,9.8,10.8,17,20.8,17   c1.6,0,3.1-0.2,4.6-0.5c1.4-0.3,2.7,0.6,3,1.9c0.3,1.4-0.6,2.7-1.9,3C211.7,333.7,209.8,333.9,207.8,333.9z"/><path class="st0" d="M417.6,295.9h-13.5c-1.4,0-2.5-1.1-2.5-2.5c0-1.4,1.1-2.5,2.5-2.5h11v-62.5c0-2.5-1.7-4.6-4.1-5.2   c-2.9-0.7-5.4-2.7-6.8-5.4l-19.7-39.5c-0.1-0.1-0.1-0.3-0.2-0.4c-2.1-7.3-10.2-7.7-11.8-7.7h-35.4v120.7h12.8   c1.4,0,2.5,1.1,2.5,2.5c0,1.4-1.1,2.5-2.5,2.5h-15.3c-1.4,0-2.5-1.1-2.5-2.5V167.7c0-1.4,1.1-2.5,2.5-2.5h38   c6.4,0,14.1,2.9,16.6,11.1l19.6,39.3c0.7,1.4,2,2.4,3.5,2.8c4.6,1.2,7.9,5.3,7.9,10.1v65C420.1,294.8,419,295.9,417.6,295.9z"/><path class="st0" d="M334.6,295.9h-11.9c-1.4,0-2.5-1.1-2.5-2.5V179.6c0-1.4,1.1-2.5,2.5-2.5h11.9c1.4,0,2.5,1.1,2.5,2.5v113.9   C337.1,294.8,336,295.9,334.6,295.9z M325.2,290.9h6.9V182.1h-6.9V290.9z"/><path class="st0" d="M401,227.1h-47.4c-1.4,0-2.5-1.1-2.5-2.5v-47.4c0-1.4,1.1-2.5,2.5-2.5h23.7c1.4,0,2.5,1.1,2.5,2.5   c0,1.4-1.1,2.5-2.5,2.5h-21.2v42.4H401c1.4,0,2.5,1.1,2.5,2.5C403.5,226,402.4,227.1,401,227.1z"/><path class="st0" d="M365.4,255.6h-9.5c-1.4,0-2.5-1.1-2.5-2.5c0-1.4,1.1-2.5,2.5-2.5h9.5c1.4,0,2.5,1.1,2.5,2.5   C367.9,254.5,366.8,255.6,365.4,255.6z"/><path class="st0" d="M427.1,284.1c-1.4,0-2.5-1.1-2.5-2.5v-19c0-1.4,1.1-2.5,2.5-2.5c1.4,0,2.5,1.1,2.5,2.5v19   C429.6,283,428.5,284.1,427.1,284.1z"/><path class="st0" d="M403.7,278h-53.5c-1.4,0-2.5-1.1-2.5-2.5c0-1.4,1.1-2.5,2.5-2.5h53.5c1.4,0,2.5,1.1,2.5,2.5   C406.2,276.9,405.1,278,403.7,278z"/><path class="st0" d="M300.2,278h-86.9c-1.4,0-2.5-1.1-2.5-2.5c0-1.4,1.1-2.5,2.5-2.5h86.9c1.4,0,2.5,1.1,2.5,2.5   C302.7,276.9,301.6,278,300.2,278z"/><path class="st0" d="M199.4,295.9h-68.8c-1.4,0-2.5-1.1-2.5-2.5V167.7c0-1.4,1.1-2.5,2.5-2.5h68.8c1.4,0,2.5,1.1,2.5,2.5v125.7   C201.9,294.8,200.8,295.9,199.4,295.9z M133.1,290.9h63.8V170.2h-63.8V290.9z"/></g></svg>