<?xml version="1.0" encoding="UTF-8"?>
<!DOCTYPE svg PUBLIC "-//W3C//DTD SVG 1.1//EN" "http://www.w3.org/Graphics/SVG/1.1/DTD/svg11.dtd">
<svg version="1.1" xmlns="http://www.w3.org/2000/svg" xmlns:xlink="http://www.w3.org/1999/xlink" x="0" y="0" width="500" height="500" viewBox="0, 0, 500, 500">
  <g id="Background">
    <rect x="0" y="0" width="500" height="500" fill="#FFFFFF"/>
  </g>
  <g id="Layer_1">
    <g>
      <g>
        <path d="M292.836,451.387 C255.894,451.387 223.358,445.425 204.952,440.11 C148.566,424.166 124.975,433.758 124.845,433.888 C122.901,434.666 120.697,433.888 119.919,431.944 C119.142,429.999 119.919,427.796 121.864,427.018 C122.901,426.5 147.659,416 207.155,432.851 C251.486,445.684 380.979,462.405 447.605,385.928 C447.735,385.798 447.865,385.668 447.994,385.539 C448.772,384.891 448.642,384.632 448.383,384.243 C446.18,380.613 434.125,376.724 416.366,383.983 C410.663,385.928 405.348,388.65 399.775,391.501 C385.516,398.89 369.313,407.186 341.444,405.241 C339.371,405.112 337.815,403.297 337.945,401.223 C338.074,399.149 339.889,397.594 341.963,397.723 C367.758,399.538 382.276,392.02 396.405,384.761 C402.238,381.78 407.682,378.928 413.774,376.854 C433.217,368.947 449.939,372.317 454.864,380.224 C457.068,383.854 456.42,388.131 453.179,390.983 C411.7,438.425 347.537,451.387 292.836,451.387 z" fill="#073B4C"/>
        <path d="M292.318,414.185 C266.523,414.185 246.69,409.13 232.95,399.149 C231.265,397.853 230.876,395.52 232.173,393.835 C233.469,392.15 235.802,391.761 237.487,393.057 C254.727,405.76 284.929,409.649 324.853,404.334 C333.149,403.297 338.463,400.186 340.408,395.39 C342.093,390.983 340.667,386.317 338.334,383.594 C336.908,381.78 335.093,380.872 333.667,381.132 C332.76,381.261 331.723,381.261 329.519,381.391 C316.687,382.428 286.873,384.761 276.115,369.854 C228.025,325.524 200.415,325.524 188.49,325.524 C177.601,325.524 172.935,327.727 166.583,330.968 C158.547,334.856 148.436,339.782 122.901,341.597 C120.827,341.726 119.012,340.171 118.882,338.097 C118.753,336.023 120.308,334.208 122.382,334.079 C146.492,332.394 155.306,327.986 163.213,324.227 C169.954,320.857 175.787,318.005 188.49,318.005 C201.193,318.005 231.136,318.005 281.559,364.67 C281.818,364.799 281.948,365.058 282.077,365.318 C290.114,376.984 319.279,374.78 328.871,374.002 C330.556,373.873 331.852,373.743 332.63,373.743 C336.778,373.095 341.056,375.039 344.167,378.928 C348.703,384.372 349.87,392.02 347.407,398.371 C345.333,403.556 339.889,410.167 325.89,412.111 C313.705,413.408 302.558,414.185 292.318,414.185 z" fill="#073B4C"/>
        <path d="M122.253,453.85 L38.257,453.85 C36.183,453.85 34.498,452.165 34.498,450.091 C34.498,448.017 36.183,446.332 38.257,446.332 L118.493,446.332 L118.493,319.042 L38.257,319.042 C36.183,319.042 34.498,317.357 34.498,315.283 C34.498,313.209 36.183,311.524 38.257,311.524 L122.253,311.524 C124.326,311.524 126.012,313.209 126.012,315.283 L126.012,450.091 C126.141,452.165 124.326,453.85 122.253,453.85 z" fill="#073B4C"/>
        <path d="M344.815,391.372 C343.389,391.372 341.963,390.464 341.315,389.039 C340.537,387.094 341.315,384.891 343.259,383.983 L398.219,360.133 C404.182,357.54 410.533,356.633 415.978,357.54 C422.07,358.577 426.477,361.688 428.551,366.225 C430.106,369.984 429.977,374.132 427.903,378.41 C426.995,380.354 424.792,381.132 422.848,380.224 C420.903,379.317 420.125,377.113 421.033,375.169 C421.811,373.614 422.459,371.41 421.551,369.336 C420.255,366.355 416.755,365.447 414.681,365.058 C410.663,364.41 405.737,365.188 401.201,367.132 L346.241,390.983 C345.852,391.242 345.333,391.372 344.815,391.372 z" fill="#073B4C"/>
        <path d="M367.11,381.261 C366.202,381.261 365.425,381.002 364.777,380.354 C363.091,379.058 362.962,376.595 364.258,375.039 C366.98,371.799 367.888,368.429 366.851,365.966 C365.554,362.984 362.055,362.077 359.981,361.688 C355.962,361.04 351.037,361.818 346.5,363.762 L307.872,380.354 C305.928,381.132 303.724,380.354 302.947,378.41 C302.169,376.465 302.947,374.262 304.891,373.484 L343.389,356.892 C349.352,354.3 355.703,353.392 361.147,354.3 C367.239,355.337 371.776,358.448 373.721,362.984 C375.924,368.169 374.628,374.262 370.091,379.835 C369.313,380.743 368.276,381.261 367.11,381.261 z" fill="#073B4C"/>
      </g>
      <path d="M399.127,291.303 L228.932,291.303 C226.858,291.303 225.173,289.618 225.173,287.544 L225.173,156.755 C225.173,154.681 226.858,152.996 228.932,152.996 L399.127,152.996 C401.201,152.996 402.886,154.681 402.886,156.755 L402.886,287.414 C403.015,289.618 401.201,291.303 399.127,291.303 z M232.691,283.655 L395.368,283.655 L395.368,160.643 L232.691,160.643 L232.691,283.655 z" fill="#06D6A0"/>
      <path d="M422.977,160.643 L205.211,160.643 C203.137,160.643 201.452,158.958 201.452,156.884 L201.452,105.424 C201.452,103.35 203.137,101.665 205.211,101.665 L422.977,101.665 C425.051,101.665 426.736,103.35 426.736,105.424 L426.736,156.884 C426.736,158.958 425.051,160.643 422.977,160.643 z M208.97,152.996 L419.089,152.996 L419.089,109.183 L208.97,109.183 L208.97,152.996 z" fill="#06D6A0"/>
      <path d="M327.834,291.303 L300.095,291.303 C298.021,291.303 296.336,289.618 296.336,287.544 L296.336,156.755 C296.336,154.681 298.021,152.996 300.095,152.996 L327.834,152.996 C329.908,152.996 331.593,154.681 331.593,156.755 L331.593,287.414 C331.723,289.618 330.038,291.303 327.834,291.303 z M303.984,283.655 L324.075,283.655 L324.075,160.643 L303.984,160.643 L303.984,283.655 z" fill="#06D6A0"/>
      <path d="M335.871,160.643 L292.318,160.643 C290.244,160.643 288.558,158.958 288.558,156.884 L288.558,105.424 C288.558,103.35 290.244,101.665 292.318,101.665 L335.871,101.665 C337.945,101.665 339.63,103.35 339.63,105.424 L339.63,156.884 C339.63,158.958 337.945,160.643 335.871,160.643 z M296.077,152.996 L331.982,152.996 L331.982,109.183 L296.077,109.183 L296.077,152.996 z" fill="#06D6A0"/>
      <path d="M347.666,109.183 C345.592,109.183 343.907,107.498 343.907,105.424 C343.907,96.61 338.463,89.481 331.852,89.481 L300.224,89.481 C293.614,89.481 288.17,96.61 288.17,105.424 C288.17,107.498 286.484,109.183 284.41,109.183 C282.337,109.183 280.651,107.498 280.651,105.424 C280.651,92.462 289.466,81.833 300.354,81.833 L331.982,81.833 C342.741,81.833 351.555,92.462 351.555,105.424 C351.425,107.498 349.74,109.183 347.666,109.183 z" fill="#06D6A0"/>
      <g>
        <path d="M346.759,102.572 C345.463,102.572 344.167,101.924 343.389,100.628 C342.352,98.813 343,96.48 344.815,95.443 L380.461,75.222 C381.368,74.704 383.053,73.537 383.313,72.241 C383.572,71.204 382.794,69.908 382.016,69 C379.683,66.019 374.498,60.445 369.573,55.001 C366.98,52.149 364.517,49.427 362.573,47.224 C361.277,45.668 360.369,45.668 359.851,45.668 C358.036,45.668 355.962,47.353 355.573,47.872 L318.631,88.184 C317.205,89.74 314.872,89.869 313.316,88.444 C311.761,87.018 311.631,84.685 313.057,83.129 L350,42.816 C350.518,42.298 354.407,38.15 359.851,38.15 C359.851,38.15 359.981,38.15 359.981,38.15 C362.184,38.15 365.295,38.928 368.147,42.168 C370.091,44.372 372.554,47.094 375.146,49.946 C380.202,55.519 385.387,61.223 387.849,64.334 C390.96,68.352 391.09,71.852 390.572,74.055 C389.405,79.24 384.35,81.703 383.831,81.962 L348.444,102.054 C347.926,102.443 347.277,102.572 346.759,102.572 z" fill="#06D6A0"/>
        <path d="M339.759,90.647 C338.722,90.647 337.685,90.258 336.908,89.351 C335.482,87.795 335.741,85.333 337.297,84.036 L349.222,73.667 C350.777,72.241 353.24,72.5 354.536,74.055 C355.962,75.611 355.703,78.074 354.147,79.37 L342.222,89.74 C341.574,90.388 340.667,90.647 339.759,90.647 z" fill="#06D6A0"/>
      </g>
      <g>
        <path d="M284.67,103.48 C284.022,103.48 283.374,103.35 282.725,102.961 L247.598,81.833 C247.338,81.703 242.283,79.24 241.117,74.055 C240.598,71.852 240.598,68.352 243.839,64.334 C246.431,61.093 251.616,55.39 256.671,49.816 C259.134,47.094 261.597,44.372 263.541,42.168 C266.523,38.928 269.634,38.15 271.707,38.15 C271.707,38.15 271.837,38.15 271.837,38.15 C277.152,38.15 281.17,42.298 281.688,42.687 L318.631,82.999 C320.057,84.555 319.927,86.888 318.372,88.314 C316.816,89.74 314.483,89.61 313.057,88.055 L276.115,47.742 C275.596,47.224 273.652,45.538 271.837,45.538 C271.578,45.538 270.541,45.538 269.115,47.094 C267.171,49.298 264.708,52.02 262.245,54.742 C257.449,59.927 252.134,65.889 249.672,68.871 C249.023,69.778 248.116,71.074 248.375,72.111 C248.764,73.537 250.709,74.704 250.968,74.963 L286.355,96.351 C288.17,97.388 288.688,99.721 287.651,101.535 C287.262,102.832 285.966,103.48 284.67,103.48 z" fill="#06D6A0"/>
        <path d="M292.188,90.647 C291.281,90.647 290.373,90.388 289.725,89.74 L277.8,79.37 C276.244,77.944 276.115,75.611 277.411,74.055 C278.837,72.5 281.17,72.37 282.725,73.667 L294.651,84.036 C296.206,85.462 296.336,87.795 295.04,89.351 C294.262,90.258 293.225,90.647 292.188,90.647 z" fill="#06D6A0"/>
      </g>
    </g>
  </g>
</svg>
