<?xml version="1.0" encoding="UTF-8"?>
<!DOCTYPE svg PUBLIC "-//W3C//DTD SVG 1.1//EN" "http://www.w3.org/Graphics/SVG/1.1/DTD/svg11.dtd">
<svg version="1.1" xmlns="http://www.w3.org/2000/svg" xmlns:xlink="http://www.w3.org/1999/xlink" x="0" y="0" width="500" height="500" viewBox="0, 0, 500, 500">
  <g id="Background">
    <rect x="0" y="0" width="500" height="500" fill="#FFFFFF"/>
  </g>
  <g id="Layer_1">
    <g>
      <g>
        <g>
          <path d="M250.945,383.6 C250.315,383.6 249.685,383.474 249.055,383.096 L149.886,325.888 C148.752,325.258 147.996,323.998 147.996,322.612 L147.996,272.334 C147.996,270.192 149.76,268.554 151.776,268.554 C153.793,268.554 155.557,270.318 155.557,272.334 L155.557,320.344 L250.945,375.409 L346.333,320.344 L346.333,270.444 C346.333,268.302 348.098,266.664 350.114,266.664 C352.13,266.664 353.894,268.428 353.894,270.444 L353.894,322.486 C353.894,323.872 353.138,325.132 352.004,325.762 L252.835,383.096 C252.331,383.474 251.701,383.6 250.945,383.6 z" fill="#06D6A0"/>
          <path d="M151.776,211.85 C150.39,211.85 149.004,211.094 148.374,209.708 C147.492,207.818 148.248,205.55 150.138,204.668 L249.307,156.533 C250.315,156.029 251.575,156.029 252.583,156.533 L351.752,204.668 C353.642,205.55 354.398,207.818 353.516,209.708 C352.634,211.598 350.366,212.354 348.476,211.472 L250.945,164.219 L153.414,211.472 C152.91,211.724 152.406,211.85 151.776,211.85 z" fill="#06D6A0"/>
          <path d="M250.819,381.71 C248.677,381.71 247.039,379.946 247.039,377.93 L247.039,260.868 L150.642,210.716 C148.752,209.708 147.996,207.44 149.004,205.55 C150.012,203.66 152.28,202.904 154.171,203.912 L252.583,255.071 C253.843,255.701 254.599,257.087 254.599,258.474 L254.599,377.804 C254.599,380.072 252.961,381.71 250.819,381.71 z" fill="#06D6A0"/>
          <path d="M251.953,262.38 C250.567,262.38 249.181,261.624 248.551,260.364 C247.543,258.474 248.299,256.205 250.189,255.197 L345.829,205.928 C347.72,204.92 349.988,205.676 350.996,207.566 C352.004,209.456 351.248,211.724 349.358,212.732 L253.717,262.002 C253.213,262.254 252.583,262.38 251.953,262.38 z" fill="#06D6A0"/>
        </g>
        <path d="M291.646,303.711 C290.638,303.711 289.63,303.333 289,302.577 L248.425,261.75 C247.543,260.868 247.165,259.734 247.417,258.474 C247.543,257.213 248.299,256.205 249.433,255.701 L347.72,204.794 C349.232,204.038 350.996,204.29 352.13,205.55 L392.705,246.377 C393.587,247.259 393.965,248.393 393.713,249.653 C393.587,250.913 392.831,251.921 391.697,252.425 L293.41,303.333 C292.906,303.585 292.276,303.711 291.646,303.711 z M257.497,260.112 L292.402,295.268 L383.632,248.015 L348.728,212.858 L257.497,260.112 z" fill="#06D6A0"/>
        <path d="M152.406,211.346 C152.154,211.346 151.902,211.346 151.65,211.22 L116.368,204.668 C114.73,204.416 113.47,203.03 113.344,201.392 C113.092,199.754 113.974,198.115 115.486,197.485 L213.773,149.602 C214.529,149.224 215.285,149.098 216.167,149.224 L251.449,155.777 C253.087,156.029 254.347,157.415 254.473,159.053 C254.725,160.691 253.843,162.329 252.331,162.959 L154.045,210.842 C153.54,211.22 152.91,211.346 152.406,211.346 z M129.095,199.376 L151.776,203.534 L238.47,161.195 L215.789,157.037 L129.095,199.376 z" fill="#06D6A0"/>
        <path d="M209.488,304.467 C208.858,304.467 208.228,304.341 207.724,304.089 L109.186,252.803 C108.051,252.299 107.421,251.165 107.169,250.031 C107.043,248.897 107.421,247.637 108.177,246.755 L149.76,204.794 C150.39,204.164 151.398,203.66 152.28,203.66 C152.91,203.66 153.667,203.786 154.297,204.038 L252.709,255.197 C253.843,255.701 254.473,256.835 254.725,257.97 C254.851,259.104 254.473,260.364 253.717,261.246 L212.134,303.207 C211.504,304.089 210.496,304.467 209.488,304.467 z M117.25,248.393 L208.732,295.898 L244.645,259.608 L153.288,211.976 L117.25,248.393 z" fill="#06D6A0"/>
        <path d="M350.366,211.85 C349.862,211.85 349.232,211.724 348.728,211.472 L248.425,163.841 C246.913,163.085 246.031,161.573 246.283,159.935 C246.409,158.297 247.669,157.037 249.307,156.659 L288.748,147.838 C289.63,147.712 290.386,147.712 291.268,148.09 L391.445,195.721 C392.957,196.477 393.839,197.989 393.587,199.628 C393.461,201.266 392.201,202.526 390.688,202.904 L351.374,211.724 C350.996,211.724 350.744,211.85 350.366,211.85 z M261.782,161.699 L350.87,204.038 L378.088,197.989 L289.126,155.651 L261.782,161.699 z" fill="#06D6A0"/>
      </g>
      <g>
        <path d="M415.638,321.1 C415.008,321.1 414.252,320.974 413.748,320.596 L368.133,293.882 C366.369,292.874 365.739,290.48 366.747,288.716 C367.755,286.951 370.149,286.321 371.913,287.329 L415.512,312.909 L487.085,271.578 L487.085,189.043 L415.512,154.264 L373.047,174.804 C371.157,175.686 368.889,174.93 368.007,173.04 C367.125,171.15 367.881,168.881 369.771,167.999 L413.874,146.578 C414.882,146.074 416.142,146.074 417.15,146.578 L492.629,183.12 C493.889,183.75 494.771,185.137 494.771,186.523 L494.771,273.595 C494.771,274.981 494.015,276.241 492.881,276.871 L417.402,320.47 C416.898,320.974 416.268,321.1 415.638,321.1 z" fill="#073B4C"/>
        <path d="M415.512,319.714 C413.37,319.714 411.732,317.95 411.732,315.933 L411.732,227.475 L392.453,217.395 C390.562,216.387 389.806,214.119 390.814,212.228 C391.823,210.338 394.091,209.582 395.981,210.59 L417.402,221.679 C418.662,222.309 419.418,223.695 419.418,225.081 L419.418,315.807 C419.292,317.95 417.528,319.714 415.512,319.714 z" fill="#073B4C"/>
        <path d="M416.394,228.862 C415.008,228.862 413.622,228.106 412.992,226.845 C411.984,224.955 412.74,222.687 414.63,221.679 L487.337,184.129 C489.227,183.12 491.495,183.877 492.503,185.767 C493.511,187.657 492.755,189.925 490.865,190.933 L418.158,228.484 C417.528,228.736 416.898,228.862 416.394,228.862 z" fill="#073B4C"/>
      </g>
      <g>
        <path d="M84.488,321.1 C83.858,321.1 83.228,320.974 82.598,320.596 L7.119,276.997 C5.985,276.367 5.229,275.107 5.229,273.721 L5.229,186.649 C5.229,185.137 6.111,183.876 7.371,183.246 L82.85,146.704 C83.858,146.2 85.118,146.2 86.126,146.704 L130.229,168.125 C132.119,169.007 132.875,171.276 131.993,173.166 C131.111,175.056 128.843,175.812 126.953,174.93 L84.488,154.391 L12.915,189.169 L12.915,271.704 L84.488,313.035 L128.087,287.455 C129.851,286.447 132.245,286.951 133.253,288.842 C134.261,290.606 133.757,293 131.867,294.008 L86.252,320.722 C85.748,320.848 85.118,321.1 84.488,321.1 z" fill="#073B4C"/>
        <path d="M84.614,319.714 C82.472,319.714 80.834,317.95 80.834,315.933 L80.834,225.207 C80.834,223.821 81.59,222.435 82.85,221.805 L104.271,210.716 C106.161,209.708 108.429,210.464 109.438,212.354 C110.446,214.245 109.69,216.513 107.799,217.521 L88.52,227.601 L88.52,316.059 C88.394,317.95 86.756,319.714 84.614,319.714 z" fill="#073B4C"/>
        <path d="M83.732,228.862 C83.102,228.862 82.598,228.736 81.968,228.484 L9.261,190.933 C7.371,189.925 6.615,187.657 7.623,185.767 C8.631,183.877 10.899,183.12 12.789,184.129 L85.496,221.679 C87.386,222.687 88.142,224.955 87.134,226.845 C86.378,228.106 85.118,228.862 83.732,228.862 z" fill="#073B4C"/>
      </g>
    </g>
  </g>
</svg>
