<?xml version="1.0" encoding="UTF-8"?>
<!DOCTYPE svg PUBLIC "-//W3C//DTD SVG 1.1//EN" "http://www.w3.org/Graphics/SVG/1.1/DTD/svg11.dtd">
<svg version="1.1" xmlns="http://www.w3.org/2000/svg" xmlns:xlink="http://www.w3.org/1999/xlink" x="0" y="0" width="500" height="500" viewBox="0, 0, 500, 500">
  <g id="Background">
    <rect x="0" y="0" width="500" height="500" fill="#FFFFFF"/>
  </g>
  <g id="Layer_1">
    <g>
      <path d="M336.214,327.765 L255.542,327.765 C253.507,327.765 251.908,326.166 251.908,324.131 C251.908,322.096 253.507,320.497 255.542,320.497 L332.58,320.497 L332.58,124.413 L60.62,124.413 L60.62,320.497 L171.817,320.497 C173.852,320.497 175.451,322.096 175.451,324.131 C175.451,326.166 173.852,327.765 171.817,327.765 L56.986,327.765 C54.952,327.765 53.353,326.166 53.353,324.131 L53.353,120.634 C53.353,118.599 54.952,117 56.986,117 L336.214,117 C338.249,117 339.848,118.599 339.848,120.634 L339.848,324.131 C339.848,326.166 338.249,327.765 336.214,327.765 z" fill="#073B4C"/>
      <path d="M332.871,145.054 L194.929,145.054 C192.894,145.054 191.295,143.455 191.295,141.42 C191.295,139.385 192.894,137.786 194.929,137.786 L332.871,137.786 C334.906,137.786 336.505,139.385 336.505,141.42 C336.505,143.455 334.76,145.054 332.871,145.054 z" fill="#073B4C"/>
      <path d="M156.991,327.765 L108.733,327.765 C106.698,327.765 105.099,326.166 105.099,324.131 L105.099,262.064 C105.099,260.03 106.698,258.431 108.733,258.431 L156.991,258.431 C159.026,258.431 160.625,260.03 160.625,262.064 L160.625,324.131 C160.625,326.166 159.026,327.765 156.991,327.765 z M112.367,320.497 L153.357,320.497 L153.357,265.698 L112.367,265.698 L112.367,320.497 z" fill="#06D6A0"/>
      <path d="M156.991,265.698 L125.885,265.698 C123.85,265.698 122.251,264.099 122.251,262.064 L122.251,227.615 C122.251,225.58 123.85,223.981 125.885,223.981 L156.846,223.981 C158.88,223.981 160.479,225.58 160.479,227.615 L160.479,262.064 C160.625,264.099 159.026,265.698 156.991,265.698 z M129.519,258.431 L153.212,258.431 L153.212,231.249 L129.519,231.249 L129.519,258.431 z" fill="#06D6A0"/>
      <path d="M156.991,145.054 C154.956,145.054 153.357,143.455 153.357,141.42 L153.357,120.779 C153.357,118.744 154.956,117.145 156.991,117.145 C159.026,117.145 160.625,118.744 160.625,120.779 L160.625,141.42 C160.625,143.455 159.026,145.054 156.991,145.054 z" fill="#073B4C"/>
      <path d="M112.076,383 L12.072,383 C10.618,383 9.455,382.128 8.729,380.965 C8.147,379.657 8.293,378.203 9.165,377.04 L53.934,321.805 C54.661,320.933 55.678,320.497 56.696,320.497 L156.7,320.497 C158.154,320.497 159.317,321.369 160.043,322.532 C160.625,323.84 160.479,325.294 159.607,326.457 L114.838,381.692 C114.256,382.564 113.239,383 112.076,383 z M19.776,375.732 L110.332,375.732 L149.287,327.91 L58.731,327.91 L19.776,375.732 z" fill="#073B4C"/>
      <g>
        <path d="M212.226,383 C191.149,383 174.143,365.848 174.143,344.917 C174.143,323.84 191.295,306.834 212.226,306.834 C233.157,306.834 250.309,323.986 250.309,344.917 C250.309,365.848 233.157,383 212.226,383 z M212.226,313.956 C195.219,313.956 181.411,327.765 181.411,344.772 C181.411,361.778 195.219,375.587 212.226,375.587 C229.232,375.587 243.041,361.778 243.041,344.772 C243.041,327.765 229.232,313.956 212.226,313.956 z" fill="#073B4C"/>
        <path d="M212.226,364.831 C201.179,364.831 192.167,355.819 192.167,344.772 C192.167,333.725 201.179,324.713 212.226,324.713 C223.273,324.713 232.285,333.725 232.285,344.772 C232.14,355.819 223.127,364.831 212.226,364.831 z M212.226,332.126 C205.249,332.126 199.58,337.795 199.58,344.772 C199.58,351.749 205.249,357.417 212.226,357.417 C219.203,357.417 224.872,351.749 224.872,344.772 C224.872,337.795 219.203,332.126 212.226,332.126 z" fill="#073B4C"/>
      </g>
      <g>
        <path d="M415.723,383 C394.647,383 377.64,365.848 377.64,344.917 C377.64,323.84 394.792,306.834 415.723,306.834 C436.8,306.834 453.806,323.986 453.806,344.917 C453.806,365.848 436.654,383 415.723,383 z M415.723,313.956 C398.717,313.956 384.908,327.765 384.908,344.772 C384.908,361.778 398.717,375.587 415.723,375.587 C432.73,375.587 446.538,361.778 446.538,344.772 C446.538,327.765 432.73,313.956 415.723,313.956 z" fill="#073B4C"/>
        <path d="M415.723,364.831 C404.676,364.831 395.664,355.819 395.664,344.772 C395.664,333.725 404.676,324.713 415.723,324.713 C426.77,324.713 435.782,333.725 435.782,344.772 C435.637,355.819 426.625,364.831 415.723,364.831 z M415.723,332.126 C408.746,332.126 403.077,337.795 403.077,344.772 C403.077,351.749 408.746,357.417 415.723,357.417 C422.7,357.417 428.369,351.749 428.369,344.772 C428.369,337.795 422.7,332.126 415.723,332.126 z" fill="#073B4C"/>
      </g>
      <path d="M371.971,383 C350.895,383 333.888,365.848 333.888,344.917 C333.888,341.864 334.179,338.957 334.906,336.05 C335.342,334.161 337.377,332.852 339.266,333.289 C341.156,333.725 342.464,335.76 342.028,337.649 C341.447,339.975 341.156,342.446 341.156,344.917 C341.156,361.923 354.965,375.732 371.971,375.732 C374.297,375.732 376.477,375.442 378.658,375.005 C380.547,374.569 382.582,375.878 383.018,377.767 C383.454,379.802 382.146,381.692 380.256,382.128 C377.495,382.709 374.733,383 371.971,383 z" fill="#073B4C"/>
      <path d="M169.201,383 C151.177,383 135.478,370.209 131.844,352.475 C131.408,350.44 132.717,348.551 134.752,348.115 C136.786,347.679 138.676,348.987 139.112,351.022 C142.019,365.267 154.811,375.732 169.346,375.732 C171.672,375.732 173.852,375.442 176.032,375.005 C178.067,374.569 179.957,375.878 180.393,377.767 C180.829,379.802 179.521,381.692 177.631,382.128 C174.87,382.709 172.108,383 169.201,383 z" fill="#073B4C"/>
      <path d="M474.156,327.765 L454.533,327.765 C452.498,327.765 450.899,326.166 450.899,324.131 C450.899,322.096 452.498,320.497 454.533,320.497 L470.522,320.497 L470.522,229.65 C470.522,226.016 468.051,222.964 464.562,222.092 C460.347,221.074 456.713,218.167 454.678,214.243 L426.043,156.827 C425.898,156.682 425.898,156.391 425.753,156.246 C422.7,145.635 410.926,145.054 408.601,145.054 L357.145,145.054 L357.145,320.497 L375.75,320.497 C377.785,320.497 379.384,322.096 379.384,324.131 C379.384,326.166 377.785,327.765 375.75,327.765 L353.511,327.765 C351.476,327.765 349.877,326.166 349.877,324.131 L349.877,141.42 C349.877,139.385 351.476,137.786 353.511,137.786 L408.746,137.786 C418.049,137.786 429.241,142.001 432.875,153.92 L461.365,211.045 C462.382,213.08 464.272,214.533 466.452,215.115 C473.138,216.859 477.935,222.819 477.935,229.796 L477.935,324.276 C477.79,326.166 476.191,327.765 474.156,327.765 z" fill="#073B4C"/>
      <path d="M353.511,327.765 L336.214,327.765 C334.179,327.765 332.58,326.166 332.58,324.131 L332.58,158.717 C332.58,156.682 334.179,155.083 336.214,155.083 L353.511,155.083 C355.546,155.083 357.145,156.682 357.145,158.717 L357.145,324.276 C357.145,326.166 355.546,327.765 353.511,327.765 z M339.848,320.497 L349.877,320.497 L349.877,162.351 L339.848,162.351 L339.848,320.497 z" fill="#073B4C"/>
      <path d="M450.027,227.761 L381.129,227.761 C379.094,227.761 377.495,226.162 377.495,224.127 L377.495,155.228 C377.495,153.193 379.094,151.595 381.129,151.595 L415.578,151.595 C417.613,151.595 419.212,153.193 419.212,155.228 C419.212,157.263 417.613,158.862 415.578,158.862 L384.762,158.862 L384.762,220.493 L450.027,220.493 C452.062,220.493 453.661,222.092 453.661,224.127 C453.661,226.162 452.062,227.761 450.027,227.761 z" fill="#073B4C"/>
      <path d="M398.28,269.187 L384.472,269.187 C382.437,269.187 380.838,267.588 380.838,265.553 C380.838,263.518 382.437,261.919 384.472,261.919 L398.28,261.919 C400.315,261.919 401.914,263.518 401.914,265.553 C401.914,267.588 400.315,269.187 398.28,269.187 z" fill="#073B4C"/>
      <path d="M487.965,310.613 C485.93,310.613 484.331,309.014 484.331,306.979 L484.331,279.362 C484.331,277.327 485.93,275.728 487.965,275.728 C490,275.728 491.598,277.327 491.598,279.362 L491.598,306.979 C491.598,309.014 490,310.613 487.965,310.613 z" fill="#073B4C"/>
      <path d="M453.952,301.746 L376.186,301.746 C374.151,301.746 372.553,300.148 372.553,298.113 C372.553,296.078 374.151,294.479 376.186,294.479 L453.952,294.479 C455.986,294.479 457.585,296.078 457.585,298.113 C457.585,300.148 455.986,301.746 453.952,301.746 z" fill="#073B4C"/>
      <path d="M303.509,301.746 L177.195,301.746 C175.16,301.746 173.561,300.148 173.561,298.113 C173.561,296.078 175.16,294.479 177.195,294.479 L303.509,294.479 C305.544,294.479 307.143,296.078 307.143,298.113 C307.143,300.148 305.544,301.746 303.509,301.746 z" fill="#073B4C"/>
      <path d="M156.991,327.765 L56.986,327.765 C54.951,327.765 53.353,326.166 53.353,324.131 L53.353,141.42 C53.353,139.385 54.951,137.786 56.986,137.786 L156.991,137.786 C159.026,137.786 160.625,139.385 160.625,141.42 L160.625,324.131 C160.625,326.166 159.026,327.765 156.991,327.765 z M60.62,320.497 L153.357,320.497 L153.357,145.054 L60.62,145.054 L60.62,320.497 z" fill="#073B4C"/>
    </g>
  </g>
</svg>
