<?xml version="1.0" encoding="UTF-8"?>
<!DOCTYPE svg PUBLIC "-//W3C//DTD SVG 1.1//EN" "http://www.w3.org/Graphics/SVG/1.1/DTD/svg11.dtd">
<svg version="1.1" xmlns="http://www.w3.org/2000/svg" xmlns:xlink="http://www.w3.org/1999/xlink" x="0" y="0" width="745.089" height="213.258" viewBox="0, 0, 745.089, 213.258">
  <g id="Background">
    <rect x="0" y="0" width="745.089" height="213.258" fill="#000000" fill-opacity="0"/>
  </g>
  <defs>
    <clipPath id="Clip_1">
      <path d="M0,0 L745.089,0 L745.089,213.258 L0,213.258 z"/>
    </clipPath>
  </defs>
  <g id="Vrstva_1">
    <path d="M-0,-0.001 L-0,213.258 L54.504,213.258 L54.504,41.132 L153.009,41.132 L153.009,-0.001 z M72.832,127.182 L129.693,127.182 L129.693,86.314 L72.832,86.314 z" fill="#009949"/>
    <path d="M592.079,-0.001 L592.079,213.258 L745.088,213.258 L745.088,172.165 L646.584,172.165 L646.584,41.131 L745.088,41.131 L745.088,-0.001 z M664.91,127.182 L721.771,127.182 L721.771,86.314 L664.91,86.314 z" fill="#009949"/>
    <g clip-path="url(#Clip_1)">
      <path d="M213.367,0 C186.891,70.899 161.956,142.002 135.879,213.298 L191.519,213.298 C209.643,160.51 227.455,107.369 246.013,55.017 C264.571,107.369 282.383,160.51 300.507,213.298 L356.147,213.298 C330.07,142.002 305.135,70.899 278.659,0 L213.451,0" fill="#009949"/>
      <path d="M570.786,213.298 L538.426,213.298 L506.065,213.298 C506.065,213.298 491.836,192.753 477.319,171.717 C462.803,150.68 448,129.152 446.855,127.188 L446.855,108.698 L446.855,86.318 C457.73,86.318 464.268,86.231 473.893,86.231 C485.528,86.227 497.031,77.937 496.938,63.676 C497.031,49.52 485.435,41.115 473.893,41.115 C464.602,41.115 435.705,41.137 435.705,41.137 L424.596,41.137 C424.596,70.237 424.639,98.773 424.659,127.28 C424.681,155.787 424.681,184.268 424.596,213.258 C415.85,213.277 406.785,213.277 397.626,213.273 C388.466,213.268 379.211,213.258 370.086,213.258 C370.086,177.848 370.088,142.345 370.091,106.843 C370.093,71.34 370.096,35.838 370.096,0.427 C370.096,0.372 370.093,0.308 370.091,0.236 C370.088,0.165 370.086,0.088 370.086,0.007 L422.121,0.007 L474.156,0.007 C493.185,0.007 511.524,4.603 525.088,14.86 C538.65,25.118 547.437,41.038 547.366,63.688 C547.602,82.354 540.602,94.437 531.729,104.31 C522.185,114.687 511.649,120.848 508.096,122.898 L539.441,168.098 z" fill="#009949"/>
    </g>
  </g>
</svg>
