<?xml version="1.0" encoding="UTF-8"?>
<!DOCTYPE svg PUBLIC "-//W3C//DTD SVG 1.1//EN" "http://www.w3.org/Graphics/SVG/1.1/DTD/svg11.dtd">
<svg version="1.1" xmlns="http://www.w3.org/2000/svg" xmlns:xlink="http://www.w3.org/1999/xlink" x="0" y="0" width="595.276" height="113.386" viewBox="0, 0, 595.276, 113.386">
  <g id="Background">
    <rect x="0" y="0" width="595.276" height="113.386" fill="#000000" fill-opacity="0"/>
  </g>
  <g id="Layer_1">
    <path d="M472.2,95.893 L472.2,97.693 L455.4,97.693 Q449.52,97.693 445.74,94.633 Q441.96,91.573 439.2,87.493 L421.2,59.893 L421.2,94.093 L428.4,95.893 L428.4,97.693 L394.2,97.693 L394.2,95.893 L401.4,94.093 L401.4,17.293 L394.2,15.493 L394.2,13.693 L428.4,13.693 L428.4,15.493 L421.2,17.293 L421.2,54.973 L450.6,19.093 L441.6,15.493 L441.6,13.693 L464.4,13.693 L464.4,15.493 L454.8,19.093 L433.8,44.893 L466.2,94.093 z" fill="#0F7699"/>
    <path d="M482.4,22.693 Q482.4,20.653 483.24,18.793 Q484.08,16.933 485.46,15.553 Q486.84,14.173 488.7,13.333 Q490.56,12.493 492.6,12.493 Q494.64,12.493 496.5,13.333 Q498.36,14.173 499.74,15.553 Q501.12,16.933 501.96,18.793 Q502.8,20.653 502.8,22.693 Q502.8,24.733 501.96,26.593 Q501.12,28.453 499.74,29.833 Q498.36,31.213 496.5,32.053 Q494.64,32.893 492.6,32.893 Q490.56,32.893 488.7,32.053 Q486.84,31.213 485.46,29.833 Q484.08,28.453 483.24,26.593 Q482.4,24.733 482.4,22.693 z M491.4,37.693 Q502.2,37.693 502.2,48.493 L502.2,94.093 L509.4,95.893 L509.4,97.693 L475.8,97.693 L475.8,95.893 L483,94.093 L483,41.293 L475.8,39.493 L475.8,37.693 z" fill="#0F7699"/>
    <path d="M556.8,44.293 Q555.48,42.973 554.04,41.893 Q552.72,40.933 551.16,40.213 Q549.6,39.493 547.8,39.493 Q545.52,39.493 543.54,40.633 Q541.56,41.773 540.12,44.833 Q538.68,47.893 537.84,53.413 Q537,58.933 537,67.693 Q537,76.213 537.84,81.613 Q538.68,87.013 539.94,90.073 Q541.2,93.133 542.82,94.213 Q544.44,95.293 546,95.293 Q548.76,95.293 550.74,93.793 Q552.72,92.293 554.04,90.493 Q555.6,88.333 556.8,85.693 z M565.2,13.693 Q576,13.693 576,24.493 L576,94.093 L583.2,95.893 L583.2,97.693 L572.4,97.693 Q568.08,97.693 565.44,96.313 Q562.8,94.933 561.24,93.253 Q559.44,91.213 558.6,88.693 Q557.04,91.813 554.64,94.093 Q552.6,96.133 549.24,97.813 Q545.88,99.493 541.2,99.493 Q536.04,99.493 531.54,97.453 Q527.04,95.413 523.74,91.453 Q520.44,87.493 518.52,81.553 Q516.6,75.613 516.6,67.693 Q516.6,59.773 518.52,53.833 Q520.44,47.893 523.92,43.933 Q527.4,39.973 532.26,37.933 Q537.12,35.893 543,35.893 Q546.12,35.893 548.7,36.613 Q551.28,37.333 553.08,38.293 Q555.24,39.373 556.8,40.693 L556.8,17.293 L549.6,15.493 L549.6,13.693 z" fill="#0F7699"/>
  </g>
  <g id="Layer_2">
    <path d="M46.8,54.493 Q47.28,52.093 48.12,49.873 Q48.96,47.653 49.92,45.973 Q51,44.053 52.2,42.493 L55.8,42.493 L55.8,69.493 L52.2,69.493 Q51,67.933 49.92,66.013 Q48.96,64.333 48.12,62.173 Q47.28,60.013 46.8,57.493 L33,57.493 L33,94.093 L40.2,95.893 L40.2,97.693 L6,97.693 L6,95.893 L13.2,94.093 L13.2,17.293 L6,15.493 L6,13.693 L70.2,13.693 L70.2,35.293 L66.6,35.293 Q64.32,33.493 62.64,30.733 Q61.2,28.333 60,24.913 Q58.8,21.493 58.8,16.693 L33,16.693 L33,54.493 z" fill="#06D6A0"/>
    <path d="M105,97.093 Q107.04,97.093 109.08,95.773 Q111.12,94.453 112.74,91.153 Q114.36,87.853 115.38,82.153 Q116.4,76.453 116.4,67.693 Q116.4,58.933 115.38,53.233 Q114.36,47.533 112.74,44.233 Q111.12,40.933 109.08,39.613 Q107.04,38.293 105,38.293 Q102.96,38.293 100.92,39.613 Q98.88,40.933 97.26,44.233 Q95.64,47.533 94.62,53.233 Q93.6,58.933 93.6,67.693 Q93.6,76.453 94.62,82.153 Q95.64,87.853 97.26,91.153 Q98.88,94.453 100.92,95.773 Q102.96,97.093 105,97.093 z M105,35.893 Q112.44,35.893 118.32,38.053 Q124.2,40.213 128.34,44.353 Q132.48,48.493 134.64,54.373 Q136.8,60.253 136.8,67.693 Q136.8,75.133 134.64,81.013 Q132.48,86.893 128.34,91.033 Q124.2,95.173 118.32,97.333 Q112.44,99.493 105,99.493 Q97.56,99.493 91.68,97.333 Q85.8,95.173 81.66,91.033 Q77.52,86.893 75.36,81.013 Q73.2,75.133 73.2,67.693 Q73.2,60.253 75.36,54.373 Q77.52,48.493 81.66,44.353 Q85.8,40.213 91.68,38.053 Q97.56,35.893 105,35.893 z" fill="#06D6A0"/>
    <path d="M187.8,40.093 Q184.2,40.093 181.38,41.593 Q178.56,43.093 176.64,44.893 Q174.48,47.053 172.8,49.693 L172.8,94.093 L180,95.893 L180,97.693 L146.4,97.693 L146.4,95.893 L153.6,94.093 L153.6,41.293 L146.4,39.493 L146.4,37.693 L157.2,37.693 Q161.4,37.693 164.1,39.133 Q166.8,40.573 168.36,42.253 Q170.16,44.293 171,46.693 Q172.8,44.053 175.44,41.893 Q177.72,40.093 181.02,38.593 Q184.32,37.093 188.88,37.093 Q195.36,37.093 198.48,40.093 Q201.6,43.093 201.6,48.493 Q201.6,52.573 199.14,55.033 Q196.68,57.493 192.6,57.493 Q191.64,57.493 190.74,57.433 Q189.84,57.373 189.24,57.253 Q188.4,57.133 187.8,56.893 z" fill="#06D6A0"/>
    <path d="M227.4,67.693 Q231.48,67.693 234.6,67.513 Q237.72,67.333 239.88,67.093 Q242.4,66.853 244.2,66.493 Q244.44,65.293 244.8,63.853 Q245.04,62.533 245.22,60.913 Q245.4,59.293 245.4,57.493 Q245.4,52.093 244.56,48.433 Q243.72,44.773 242.46,42.493 Q241.2,40.213 239.58,39.253 Q237.96,38.293 236.4,38.293 Q234.84,38.293 233.22,39.433 Q231.6,40.573 230.34,43.753 Q229.08,46.933 228.24,52.693 Q227.4,58.453 227.4,67.693 z M239.4,99.493 Q224.04,99.493 215.52,91.033 Q207,82.573 207,67.693 Q207,60.253 209.16,54.373 Q211.32,48.493 215.16,44.353 Q219,40.213 224.46,38.053 Q229.92,35.893 236.4,35.893 Q243.12,35.893 248.46,37.813 Q253.8,39.733 257.52,42.973 Q261.24,46.213 263.22,50.593 Q265.2,54.973 265.2,59.893 Q265.2,61.573 265.02,62.833 Q264.84,64.093 264.6,65.053 Q264.24,66.253 264,67.093 Q258.72,68.173 252.84,68.893 Q247.8,69.613 241.2,70.153 Q234.6,70.693 227.4,70.693 Q227.4,78.133 228.48,83.113 Q229.56,88.093 231.48,91.033 Q233.4,93.973 236.04,95.233 Q238.68,96.493 241.8,96.493 Q245.4,96.493 248.58,95.173 Q251.76,93.853 254.1,91.633 Q256.44,89.413 257.82,86.593 Q259.2,83.773 259.2,80.893 L262.2,80.893 Q262.2,84.493 260.58,87.853 Q258.96,91.213 255.96,93.793 Q252.96,96.373 248.76,97.933 Q244.56,99.493 239.4,99.493 z" fill="#06D6A0"/>
    <path d="M302.4,99.493 Q298.08,99.493 294.78,98.533 Q291.48,97.573 289.08,96.253 Q286.32,94.813 284.4,92.893 Q283.44,94.213 282.3,95.293 Q281.16,96.373 280.2,96.973 Q279,97.813 277.8,98.293 L274.8,98.293 L274.8,77.893 L279.6,77.893 Q281.28,83.173 284.16,87.253 Q286.56,90.733 290.4,93.613 Q294.24,96.493 300,96.493 Q305.04,96.493 307.62,93.973 Q310.2,91.453 310.2,86.893 Q310.2,83.533 307.62,81.133 Q305.04,78.733 301.2,76.573 Q297.36,74.413 292.8,72.193 Q288.24,69.973 284.4,67.213 Q280.56,64.453 277.98,60.853 Q275.4,57.253 275.4,52.093 Q275.4,48.733 276.78,45.793 Q278.16,42.853 281.22,40.633 Q284.28,38.413 289.08,37.153 Q293.88,35.893 300.6,35.893 Q304.2,35.893 307.2,36.913 Q310.2,37.933 312.36,39.253 Q314.88,40.693 316.92,42.493 Q317.88,41.173 319.02,40.153 Q320.16,39.133 321.12,38.413 Q322.32,37.693 323.52,37.093 L326.52,37.093 L326.52,57.493 L321.72,57.493 Q319.92,52.333 317.28,48.253 Q315,44.773 311.52,41.833 Q308.04,38.893 303,38.893 Q299.88,38.893 297.54,41.293 Q295.2,43.693 295.2,47.293 Q295.2,50.893 297.78,53.533 Q300.36,56.173 304.2,58.453 Q308.04,60.733 312.6,62.893 Q317.16,65.053 321,67.753 Q324.84,70.453 327.42,73.873 Q330,77.293 330,82.093 Q330,85.933 328.56,89.113 Q327.12,92.293 323.88,94.633 Q320.64,96.973 315.36,98.233 Q310.08,99.493 302.4,99.493 z" fill="#06D6A0"/>
    <path d="M344.4,31.693 Q344.4,20.893 355.2,20.893 L363.6,20.893 L363.6,37.693 L380.4,37.693 L380.4,40.693 L363.6,40.693 L363.6,77.293 Q363.6,83.173 364.26,86.893 Q364.92,90.613 366.06,92.773 Q367.2,94.933 368.88,95.713 Q370.56,96.493 372.6,96.493 Q374.64,96.493 376.56,95.473 Q378.48,94.453 380.04,92.473 Q381.6,90.493 382.5,87.613 Q383.4,84.733 383.4,80.893 L386.4,80.893 Q386.4,89.893 381.9,94.693 Q377.4,99.493 370.2,99.493 Q364.08,99.493 359.34,97.813 Q354.6,96.133 351.24,93.133 Q347.88,90.133 346.14,86.053 Q344.4,81.973 344.4,77.293 L344.4,40.693 L336,40.693 L336,37.693 L344.4,37.693 z" fill="#06D6A0"/>
  </g>
</svg>
