<svg xmlns="http://www.w3.org/2000/svg" xmlns:xlink="http://www.w3.org/1999/xlink" version="1.1" x="0" y="0" viewBox="0 0 595.28 113.39">
  <g id="Layer_1">
    <path d="M472.2 95.89L472.2 97.69 455.4 97.69Q449.52 97.69 445.74 94.63 441.96 91.57 439.2 87.49L421.2 59.89 421.2 94.09 428.4 95.89 428.4 97.69 394.2 97.69 394.2 95.89 401.4 94.09 401.4 17.29 394.2 15.49 394.2 13.69 428.4 13.69 428.4 15.49 421.2 17.29 421.2 54.97 450.6 19.09 441.6 15.49 441.6 13.69 464.4 13.69 464.4 15.49 454.8 19.09 433.8 44.89 466.2 94.09z" fill="#0F7699"/>
    <path d="M482.4 22.69Q482.4 20.65 483.24 18.79 484.08 16.93 485.46 15.55 486.84 14.17 488.7 13.33 490.56 12.49 492.6 12.49 494.64 12.49 496.5 13.33 498.36 14.17 499.74 15.55 501.12 16.93 501.96 18.79 502.8 20.65 502.8 22.69 502.8 24.73 501.96 26.59 501.12 28.45 499.74 29.83 498.36 31.21 496.5 32.05 494.64 32.89 492.6 32.89 490.56 32.89 488.7 32.05 486.84 31.21 485.46 29.83 484.08 28.45 483.24 26.59 482.4 24.73 482.4 22.69zM491.4 37.69Q502.2 37.69 502.2 48.49L502.2 94.09 509.4 95.89 509.4 97.69 475.8 97.69 475.8 95.89 483 94.09 483 41.29 475.8 39.49 475.8 37.69z" fill="#0F7699"/>
    <path d="M556.8 44.29Q555.48 42.97 554.04 41.89 552.72 40.93 551.16 40.21 549.6 39.49 547.8 39.49 545.52 39.49 543.54 40.63 541.56 41.77 540.12 44.83 538.68 47.89 537.84 53.41 537 58.93 537 67.69 537 76.21 537.84 81.61 538.68 87.01 539.94 90.07 541.2 93.13 542.82 94.21 544.44 95.29 546 95.29 548.76 95.29 550.74 93.79 552.72 92.29 554.04 90.49 555.6 88.33 556.8 85.69zM565.2 13.69Q576 13.69 576 24.49L576 94.09 583.2 95.89 583.2 97.69 572.4 97.69Q568.08 97.69 565.44 96.31 562.8 94.93 561.24 93.25 559.44 91.21 558.6 88.69 557.04 91.81 554.64 94.09 552.6 96.13 549.24 97.81 545.88 99.49 541.2 99.49 536.04 99.49 531.54 97.45 527.04 95.41 523.74 91.45 520.44 87.49 518.52 81.55 516.6 75.61 516.6 67.69 516.6 59.77 518.52 53.83 520.44 47.89 523.92 43.93 527.4 39.97 532.26 37.93 537.12 35.89 543 35.89 546.12 35.89 548.7 36.61 551.28 37.33 553.08 38.29 555.24 39.37 556.8 40.69L556.8 17.29 549.6 15.49 549.6 13.69z" fill="#0F7699"/>
  </g>
  <g id="Layer_2">
    <path d="M46.8 54.49Q47.28 52.09 48.12 49.87 48.96 47.65 49.92 45.97 51 44.05 52.2 42.49L55.8 42.49 55.8 69.49 52.2 69.49Q51 67.93 49.92 66.01 48.96 64.33 48.12 62.17 47.28 60.01 46.8 57.49L33 57.49 33 94.09 40.2 95.89 40.2 97.69 6 97.69 6 95.89 13.2 94.09 13.2 17.29 6 15.49 6 13.69 70.2 13.69 70.2 35.29 66.6 35.29Q64.32 33.49 62.64 30.73 61.2 28.33 60 24.91 58.8 21.49 58.8 16.69L33 16.69 33 54.49z" fill="#06D6A0"/>
    <path d="M105 97.09Q107.04 97.09 109.08 95.77 111.12 94.45 112.74 91.15 114.36 87.85 115.38 82.15 116.4 76.45 116.4 67.69 116.4 58.93 115.38 53.23 114.36 47.53 112.74 44.23 111.12 40.93 109.08 39.61 107.04 38.29 105 38.29 102.96 38.29 100.92 39.61 98.88 40.93 97.26 44.23 95.64 47.53 94.62 53.23 93.6 58.93 93.6 67.69 93.6 76.45 94.62 82.15 95.64 87.85 97.26 91.15 98.88 94.45 100.92 95.77 102.96 97.09 105 97.09zM105 35.89Q112.44 35.89 118.32 38.05 124.2 40.21 128.34 44.35 132.48 48.49 134.64 54.37 136.8 60.25 136.8 67.69 136.8 75.13 134.64 81.01 132.48 86.89 128.34 91.03 124.2 95.17 118.32 97.33 112.44 99.49 105 99.49 97.56 99.49 91.68 97.33 85.8 95.17 81.66 91.03 77.52 86.89 75.36 81.01 73.2 75.13 73.2 67.69 73.2 60.25 75.36 54.37 77.52 48.49 81.66 44.35 85.8 40.21 91.68 38.05 97.56 35.89 105 35.89z" fill="#06D6A0"/>
    <path d="M187.8 40.09Q184.2 40.09 181.38 41.59 178.56 43.09 176.64 44.89 174.48 47.05 172.8 49.69L172.8 94.09 180 95.89 180 97.69 146.4 97.69 146.4 95.89 153.6 94.09 153.6 41.29 146.4 39.49 146.4 37.69 157.2 37.69Q161.4 37.69 164.1 39.13 166.8 40.57 168.36 42.25 170.16 44.29 171 46.69 172.8 44.05 175.44 41.89 177.72 40.09 181.02 38.59 184.32 37.09 188.88 37.09 195.36 37.09 198.48 40.09 201.6 43.09 201.6 48.49 201.6 52.57 199.14 55.03 196.68 57.49 192.6 57.49 191.64 57.49 190.74 57.43 189.84 57.37 189.24 57.25 188.4 57.13 187.8 56.89z" fill="#06D6A0"/>
    <path d="M227.4 67.69Q231.48 67.69 234.6 67.51 237.72 67.33 239.88 67.09 242.4 66.85 244.2 66.49 244.44 65.29 244.8 63.85 245.04 62.53 245.22 60.91 245.4 59.29 245.4 57.49 245.4 52.09 244.56 48.43 243.72 44.77 242.46 42.49 241.2 40.21 239.58 39.25 237.96 38.29 236.4 38.29 234.84 38.29 233.22 39.43 231.6 40.57 230.34 43.75 229.08 46.93 228.24 52.69 227.4 58.45 227.4 67.69zM239.4 99.49Q224.04 99.49 215.52 91.03 207 82.57 207 67.69 207 60.25 209.16 54.37 211.32 48.49 215.16 44.35 219 40.21 224.46 38.05 229.92 35.89 236.4 35.89 243.12 35.89 248.46 37.81 253.8 39.73 257.52 42.97 261.24 46.21 263.22 50.59 265.2 54.97 265.2 59.89 265.2 61.57 265.02 62.83 264.84 64.09 264.6 65.05 264.24 66.25 264 67.09 258.72 68.17 252.84 68.89 247.8 69.61 241.2 70.15 234.6 70.69 227.4 70.69 227.4 78.13 228.48 83.11 229.56 88.09 231.48 91.03 233.4 93.97 236.04 95.23 238.68 96.49 241.8 96.49 245.4 96.49 248.58 95.17 251.76 93.85 254.1 91.63 256.44 89.41 257.82 86.59 259.2 83.77 259.2 80.89L262.2 80.89Q262.2 84.49 260.58 87.85 258.96 91.21 255.96 93.79 252.96 96.37 248.76 97.93 244.56 99.49 239.4 99.49z" fill="#06D6A0"/>
    <path d="M302.4 99.49Q298.08 99.49 294.78 98.53 291.48 97.57 289.08 96.25 286.32 94.81 284.4 92.89 283.44 94.21 282.3 95.29 281.16 96.37 280.2 96.97 279 97.81 277.8 98.29L274.8 98.29 274.8 77.89 279.6 77.89Q281.28 83.17 284.16 87.25 286.56 90.73 290.4 93.61 294.24 96.49 300 96.49 305.04 96.49 307.62 93.97 310.2 91.45 310.2 86.89 310.2 83.53 307.62 81.13 305.04 78.73 301.2 76.57 297.36 74.41 292.8 72.19 288.24 69.97 284.4 67.21 280.56 64.45 277.98 60.85 275.4 57.25 275.4 52.09 275.4 48.73 276.78 45.79 278.16 42.85 281.22 40.63 284.28 38.41 289.08 37.15 293.88 35.89 300.6 35.89 304.2 35.89 307.2 36.91 310.2 37.93 312.36 39.25 314.88 40.69 316.92 42.49 317.88 41.17 319.02 40.15 320.16 39.13 321.12 38.41 322.32 37.69 323.52 37.09L326.52 37.09 326.52 57.49 321.72 57.49Q319.92 52.33 317.28 48.25 315 44.77 311.52 41.83 308.04 38.89 303 38.89 299.88 38.89 297.54 41.29 295.2 43.69 295.2 47.29 295.2 50.89 297.78 53.53 300.36 56.17 304.2 58.45 308.04 60.73 312.6 62.89 317.16 65.05 321 67.75 324.84 70.45 327.42 73.87 330 77.29 330 82.09 330 85.93 328.56 89.11 327.12 92.29 323.88 94.63 320.64 96.97 315.36 98.23 310.08 99.49 302.4 99.49z" fill="#06D6A0"/>
    <path d="M344.4 31.69Q344.4 20.89 355.2 20.89L363.6 20.89 363.6 37.69 380.4 37.69 380.4 40.69 363.6 40.69 363.6 77.29Q363.6 83.17 364.26 86.89 364.92 90.61 366.06 92.77 367.2 94.93 368.88 95.71 370.56 96.49 372.6 96.49 374.64 96.49 376.56 95.47 378.48 94.45 380.04 92.47 381.6 90.49 382.5 87.61 383.4 84.73 383.4 80.89L386.4 80.89Q386.4 89.89 381.9 94.69 377.4 99.49 370.2 99.49 364.08 99.49 359.34 97.81 354.6 96.13 351.24 93.13 347.88 90.13 346.14 86.05 344.4 81.97 344.4 77.29L344.4 40.69 336 40.69 336 37.69 344.4 37.69z" fill="#06D6A0"/>
  </g>
</svg>
