<?xml version="1.0" ?><svg id="Слой_1" style="enable-background:new 0 0 500 500;" version="1.1" viewBox="0 0 500 500" xml:space="preserve" xmlns="http://www.w3.org/2000/svg" xmlns:xlink="http://www.w3.org/1999/xlink"><style type="text/css">
	.st0{fill:#1E1E1C;}
	.st1{fill:#E13217;}
</style><g><g><path class="st0" d="M292.4,404.4c-28.5,0-53.6-4.6-67.8-8.7c-43.5-12.3-61.7-4.9-61.8-4.8c-1.5,0.6-3.2,0-3.8-1.5    c-0.6-1.5,0-3.2,1.5-3.8c0.8-0.4,19.9-8.5,65.8,4.5c34.2,9.9,134.1,22.8,185.5-36.2c0.1-0.1,0.2-0.2,0.3-0.3    c0.6-0.5,0.5-0.7,0.3-1c-1.7-2.8-11-5.8-24.7-0.2c-4.4,1.5-8.5,3.6-12.8,5.8c-11,5.7-23.5,12.1-45,10.6c-1.6-0.1-2.8-1.5-2.7-3.1    c0.1-1.6,1.5-2.8,3.1-2.7c19.9,1.4,31.1-4.4,42-10c4.5-2.3,8.7-4.5,13.4-6.1c15-6.1,27.9-3.5,31.7,2.6c1.7,2.8,1.2,6.1-1.3,8.3    C384.1,394.4,334.6,404.4,292.4,404.4z"/><path class="st0" d="M292,375.7c-19.9,0-35.2-3.9-45.8-11.6c-1.3-1-1.6-2.8-0.6-4.1c1-1.3,2.8-1.6,4.1-0.6    c13.3,9.8,36.6,12.8,67.4,8.7c6.4-0.8,10.5-3.2,12-6.9c1.3-3.4,0.2-7-1.6-9.1c-1.1-1.4-2.5-2.1-3.6-1.9c-0.7,0.1-1.5,0.1-3.2,0.2    c-9.9,0.8-32.9,2.6-41.2-8.9c-37.1-34.2-58.4-34.2-67.6-34.2c-8.4,0-12,1.7-16.9,4.2c-6.2,3-14,6.8-33.7,8.2    c-1.6,0.1-3-1.1-3.1-2.7c-0.1-1.6,1.1-3,2.7-3.1c18.6-1.3,25.4-4.7,31.5-7.6c5.2-2.6,9.7-4.8,19.5-4.8c9.8,0,32.9,0,71.8,36    c0.2,0.1,0.3,0.3,0.4,0.5c6.2,9,28.7,7.3,36.1,6.7c1.3-0.1,2.3-0.2,2.9-0.2c3.2-0.5,6.5,1,8.9,4c3.5,4.2,4.4,10.1,2.5,15    c-1.6,4-5.8,9.1-16.6,10.6C308.5,375.1,299.9,375.7,292,375.7z"/><path class="st0" d="M160.8,406.3H96c-1.6,0-2.9-1.3-2.9-2.9c0-1.6,1.3-2.9,2.9-2.9h61.9v-98.2H96c-1.6,0-2.9-1.3-2.9-2.9    c0-1.6,1.3-2.9,2.9-2.9h64.8c1.6,0,2.9,1.3,2.9,2.9v104C163.8,405,162.4,406.3,160.8,406.3z"/><path class="st0" d="M332.5,358.1c-1.1,0-2.2-0.7-2.7-1.8c-0.6-1.5,0-3.2,1.5-3.9l42.4-18.4c4.6-2,9.5-2.7,13.7-2    c4.7,0.8,8.1,3.2,9.7,6.7c1.2,2.9,1.1,6.1-0.5,9.4c-0.7,1.5-2.4,2.1-3.9,1.4c-1.5-0.7-2.1-2.4-1.4-3.9c0.6-1.2,1.1-2.9,0.4-4.5    c-1-2.3-3.7-3-5.3-3.3c-3.1-0.5-6.9,0.1-10.4,1.6l-42.4,18.4C333.3,358,332.9,358.1,332.5,358.1z"/><path class="st0" d="M349.7,350.3c-0.7,0-1.3-0.2-1.8-0.7c-1.3-1-1.4-2.9-0.4-4.1c2.1-2.5,2.8-5.1,2-7c-1-2.3-3.7-3-5.3-3.3    c-3.1-0.5-6.9,0.1-10.4,1.6L304,349.6c-1.5,0.6-3.2,0-3.8-1.5c-0.6-1.5,0-3.2,1.5-3.8l29.7-12.8c4.6-2,9.5-2.7,13.7-2    c4.7,0.8,8.2,3.2,9.7,6.7c1.7,4,0.7,8.7-2.8,13C351.4,349.9,350.6,350.3,349.7,350.3z"/></g><path class="st1" d="M374.4,280.9H243.1c-1.6,0-2.9-1.3-2.9-2.9V177.1c0-1.6,1.3-2.9,2.9-2.9h131.3c1.6,0,2.9,1.3,2.9,2.9v100.8   C377.4,279.6,376,280.9,374.4,280.9z M246,275h125.5v-94.9H246V275z"/><path class="st1" d="M392.8,180.1h-168c-1.6,0-2.9-1.3-2.9-2.9v-39.7c0-1.6,1.3-2.9,2.9-2.9h168c1.6,0,2.9,1.3,2.9,2.9v39.7   C395.7,178.8,394.4,180.1,392.8,180.1z M227.7,174.2h162.1v-33.8H227.7V174.2z"/><path class="st1" d="M319.4,280.9h-21.4c-1.6,0-2.9-1.3-2.9-2.9V177.1c0-1.6,1.3-2.9,2.9-2.9h21.4c1.6,0,2.9,1.3,2.9,2.9v100.8   C322.4,279.6,321.1,280.9,319.4,280.9z M301,275h15.5v-94.9H301V275z"/><path class="st1" d="M325.6,180.1H292c-1.6,0-2.9-1.3-2.9-2.9v-39.7c0-1.6,1.3-2.9,2.9-2.9h33.6c1.6,0,2.9,1.3,2.9,2.9v39.7   C328.5,178.8,327.2,180.1,325.6,180.1z M294.9,174.2h27.7v-33.8h-27.7V174.2z"/><path class="st1" d="M334.7,140.4c-1.6,0-2.9-1.3-2.9-2.9c0-6.8-4.2-12.3-9.3-12.3h-24.4c-5.1,0-9.3,5.5-9.3,12.3   c0,1.6-1.3,2.9-2.9,2.9c-1.6,0-2.9-1.3-2.9-2.9c0-10,6.8-18.2,15.2-18.2h24.4c8.3,0,15.1,8.2,15.1,18.2   C337.6,139.1,336.3,140.4,334.7,140.4z"/><g><path class="st1" d="M334,135.3c-1,0-2-0.5-2.6-1.5c-0.8-1.4-0.3-3.2,1.1-4l27.5-15.6c0.7-0.4,2-1.3,2.2-2.3    c0.2-0.8-0.4-1.8-1-2.5c-1.8-2.3-5.8-6.6-9.6-10.8c-2-2.2-3.9-4.3-5.4-6c-1-1.2-1.7-1.2-2.1-1.2c-1.4,0-3,1.3-3.3,1.7l-28.5,31.1    c-1.1,1.2-2.9,1.3-4.1,0.2c-1.2-1.1-1.3-2.9-0.2-4.1l28.5-31.1c0.4-0.4,3.4-3.6,7.6-3.6c0,0,0.1,0,0.1,0c1.7,0,4.1,0.6,6.3,3.1    c1.5,1.7,3.4,3.8,5.4,6c3.9,4.3,7.9,8.7,9.8,11.1c2.4,3.1,2.5,5.8,2.1,7.5c-0.9,4-4.8,5.9-5.2,6.1l-27.3,15.5    C334.9,135.2,334.4,135.3,334,135.3z"/><path class="st1" d="M328.6,126.1c-0.8,0-1.6-0.3-2.2-1c-1.1-1.2-0.9-3.1,0.3-4.1l9.2-8c1.2-1.1,3.1-0.9,4.1,0.3    c1.1,1.2,0.9,3.1-0.3,4.1l-9.2,8C330,125.9,329.3,126.1,328.6,126.1z"/></g><g><path class="st1" d="M286.1,136c-0.5,0-1-0.1-1.5-0.4l-27.1-16.3c-0.2-0.1-4.1-2-5-6c-0.4-1.7-0.4-4.4,2.1-7.5    c2-2.5,6-6.9,9.9-11.2c1.9-2.1,3.8-4.2,5.3-5.9c2.3-2.5,4.7-3.1,6.3-3.1c0,0,0.1,0,0.1,0c4.1,0,7.2,3.2,7.6,3.5l28.5,31.1    c1.1,1.2,1,3-0.2,4.1c-1.2,1.1-3,1-4.1-0.2l-28.5-31.1c-0.4-0.4-1.9-1.7-3.3-1.7c-0.2,0-1,0-2.1,1.2c-1.5,1.7-3.4,3.8-5.3,5.9    c-3.7,4-7.8,8.6-9.7,10.9c-0.5,0.7-1.2,1.7-1,2.5c0.3,1.1,1.8,2,2,2.2l27.3,16.5c1.4,0.8,1.8,2.6,1,4    C288.1,135.5,287.1,136,286.1,136z"/><path class="st1" d="M291.9,126.1c-0.7,0-1.4-0.2-1.9-0.7l-9.2-8c-1.2-1.1-1.3-2.9-0.3-4.1c1.1-1.2,2.9-1.3,4.1-0.3l9.2,8    c1.2,1.1,1.3,2.9,0.3,4.1C293.5,125.8,292.7,126.1,291.9,126.1z"/></g></g></svg>