<?xml version="1.0" ?><svg id="Слой_1" style="enable-background:new 0 0 500 500;" version="1.1" viewBox="0 0 500 500" xml:space="preserve" xmlns="http://www.w3.org/2000/svg" xmlns:xlink="http://www.w3.org/1999/xlink"><style type="text/css">
	.st0{fill:#E13217;}
	.st1{fill:#1E1E1C;}
</style><g><path class="st0" d="M314.5,240.6c-2.1,0-4.1-0.8-5.7-2.4c-1.1-1.2-1.1-3,0-4.2c1.2-1.1,3-1.1,4.2,0c1.1,1.1,3.3,0.4,3.5-1.2   c0.1-0.9,0.6-1.7,1.4-2.2c0.8-0.5,1.7-0.6,2.6-0.2c0.1,0,0.4,0.1,1.3,0.2c0.2,0,0.3,0,0.4,0l0.7,0c9.8,0,17.7-9.8,17.7-21.9   c0-7.7-3.4-15-8.8-18.9c-0.4-0.3-0.5-0.4-0.7-0.5c-3.1-2.1-7.4-2.5-8.2-2.5l-0.6,0l-0.5,0c-0.9,0.1-1.1,0.2-1.1,0.2   c-0.6,0.6-1.5,0.9-2.4,0.8c-0.9-0.1-1.6-0.7-2.1-1.5c-0.7-1.3-2.7-1.3-3.5-0.1c-0.9,1.4-2.7,1.8-4.1,0.9c-1.4-0.9-1.8-2.7-0.9-4.1   c1.5-2.3,4-3.7,6.7-3.7c1.9,0,3.7,0.7,5.1,1.9c0.6-0.1,1.1-0.2,1.6-0.2c0.9-0.1,0.9-0.1,1.2-0.1l0.5,0c1.7,0,7.1,0.6,11.4,3.4   c0.4,0.3,0.9,0.6,1.2,0.9c6.7,4.8,10.9,13.7,10.9,23.4c0,15.3-10.6,27.8-23.6,27.8l-0.4,0c-0.3,0-0.6,0-1.1,0   C320,239,317.5,240.6,314.5,240.6z"/><path class="st0" d="M179.3,241.1c-2.9,0-5.5-1.6-6.9-4c-0.5,0-0.8,0-1.1,0l-0.4,0c-13,0-23.6-12.5-23.6-27.8   c0-9.7,4.1-18.5,11.1-23.6c0.3-0.3,0.6-0.5,1-0.7c4.4-2.9,9.8-3.5,11.5-3.5l0.5,0c0.4,0,0.4,0,1.1,0.1c0.5,0,1.1,0.1,1.7,0.3   c1.4-1.2,3.2-1.9,5.1-1.9c4.4,0,7.9,3.6,7.9,7.9c0,1.6-1.3,2.9-2.9,2.9c-1.6,0-2.9-1.3-2.9-2.9c0-1.1-0.9-2-2-2   c-0.7,0-1.4,0.4-1.8,1c-0.5,0.8-1.3,1.3-2.2,1.4c-0.9,0.1-1.8-0.2-2.4-0.8c0,0-0.2,0-0.8-0.1l-0.6-0.1l-0.7,0   c-0.9,0-5.1,0.4-8.2,2.5c-0.2,0.1-0.3,0.2-0.4,0.3c-5.7,4.2-9.1,11.4-9.1,19.1c0,12.1,7.9,21.9,17.7,21.9l0.7,0c0.1,0,0.2,0,0.5,0   c0.8-0.1,1.1-0.2,1.2-0.2c0.8-0.3,1.8-0.2,2.6,0.2c0.8,0.5,1.3,1.3,1.4,2.1c0.1,1,1,1.8,2,1.8c1.2,0,1.4-1.1,1.4-1.9   c0-1.6,1.3-2.9,2.9-2.9c1.6,0,2.9,1.3,2.9,2.9C186.6,237.8,183.5,241.1,179.3,241.1z"/><path class="st1" d="M248.2,430.2c-1.6,0-2.9-1.3-2.9-2.9V322.7c0-1.6,1.3-2.9,2.9-2.9s2.9,1.3,2.9,2.9v104.6   C251.2,428.9,249.8,430.2,248.2,430.2z"/><path class="st1" d="M271.5,348.3c-0.8,0-1.5-0.3-2.1-0.9l-22.1-22.3c-1.1-1.2-1.1-3,0-4.2c1.2-1.1,3-1.1,4.2,0l19.3,19.4   c3.7-7.8,10.9-27.3-1.6-41.3c-1.1-1.2-1-3.1,0.2-4.2c1.2-1.1,3.1-1,4.2,0.2c18.7,21,1.2,50.4,0.4,51.7c-0.5,0.8-1.3,1.3-2.2,1.4   C271.8,348.3,271.6,348.3,271.5,348.3z"/><path class="st1" d="M222.6,348.3c-0.1,0-0.2,0-0.3,0c-0.9-0.1-1.7-0.6-2.2-1.4c-0.8-1.2-18.2-30.7,0.4-51.7   c1.1-1.2,2.9-1.3,4.2-0.2c1.2,1.1,1.3,2.9,0.2,4.2c-12.4,14-5.3,33.5-1.6,41.3l19.3-19.4c1.1-1.1,3-1.2,4.2,0s1.2,3,0,4.2   l-22.1,22.3C224.1,348,223.4,348.3,222.6,348.3z"/><path class="st1" d="M248.1,325.5c0,0-0.1,0-0.1,0l0,0c-2.9-0.6-10.7-5.5-14.6-8.9c-4.8-4.2-7.2-8.6-7.2-12.9v-4.8   c0-1.6,1.3-2.9,2.9-2.9s2.9,1.3,2.9,2.9v4.8c0,6.3,11,13.2,16.2,15.7c5.3-2.5,16.2-9.4,16.2-15.7v-4.8c0-1.6,1.3-2.9,2.9-2.9   c1.6,0,2.9,1.3,2.9,2.9v4.8c0,4.3-2.4,8.6-7.1,12.8c-4.1,3.7-11.9,8.3-14.7,9l0,0.1c-0.1,0-0.2,0-0.3,0   C248.2,325.5,248.2,325.5,248.1,325.5z"/><path class="st1" d="M248.2,431.5C248.2,431.5,248.2,431.5,248.2,431.5c-61.5,0-95.7-29.3-97.1-30.5c-0.6-0.6-1-1.4-1-2.2v-50.9   c0-27,27.4-48.9,69.7-55.7c1.6-0.3,3.1,0.8,3.4,2.4c0.3,1.6-0.8,3.1-2.4,3.4c-39.4,6.4-64.8,26-64.8,49.9v49.5   c6,4.7,38.7,28.2,92.2,28.2c0,0,0,0,0,0c53.6,0,83.8-23.5,89.2-28.2v-49.6c0-23.5-24.8-43-63.2-49.7c-1.6-0.3-2.7-1.8-2.4-3.4   c0.3-1.6,1.8-2.7,3.4-2.4c41.4,7.2,68.1,28.9,68.1,55.5v50.9c0,0.8-0.3,1.6-0.9,2.1C341.1,402.1,309.8,431.5,248.2,431.5z"/><g><path class="st1" d="M248.3,304.8c-29.1-0.1-64.7-31.3-64.7-67.5l-1.7-50.1c0-0.5,0.1-0.9,0.3-1.3l9.2-19.8    c0.3-0.6,0.8-1.1,1.5-1.4l1.7-0.7c0.6-0.3,1.3-0.3,1.9-0.2c1.6,0.4,3.1,0.6,4.6,0.6c5.7,0,13.4-4.3,19.4-11.1c0.6-0.6,1.4-1,2.3-1    c0.9,0,1.7,0.5,2.2,1.2c7.7,10.2,22.5,11.6,22.7,11.6l1.8,0.2c1.9,0.2,3.9,0.3,6.2,0.5c0.3,0,0.5,0.1,0.8,0.2l0.9-0.1    c6,0.2,11.1-0.2,16.5-1.1l24.3-6.8c1.4-0.4,2.8,0.3,3.4,1.6l13.1,28c0.2,0.4,0.3,0.9,0.3,1.3l-1.6,48.7    c0,36.1-35.5,67.3-64.6,67.4H248.3z M187.8,187.6l1.7,49.5c0,27.1,27.7,61.6,58.8,61.7h0.4c31.1-0.1,58.8-34.6,58.8-61.6l1.6-48.1    l-11.8-25.1l-22.2,6.2c-6,1.1-11.6,1.5-17.6,1.3l-1.3,0.1c-0.5,0-0.9,0-1.4-0.2c-2.1-0.1-4-0.3-5.8-0.4l-1.7-0.1l0,0    c0,0-15-1.1-24.8-11.4c-5.7,5.5-13.7,10.6-21.5,10.6c-1.6,0-3.2-0.2-4.8-0.5l-3.3,7L187.8,187.6z"/><path class="st1" d="M312.7,193c-1.1,0-2.2-0.6-2.7-1.7l-13.2-27.8c-22.4,9.7-37.6,8.4-47.8,7.5l-1.8-0.2c0,0,0,0,0,0    c0,0-14.8-1.1-24.5-11.1c-5.9-6.1-8.7-14-8.3-23.5c0.9-18.6,14.3-33.3,30.7-33.6c42.9-0.6,67.5,14.3,75.5,45.6    c0.1,0.5,0.1,0.9,0,1.4c-0.3,2-3.1,25.4-4.9,40.9c-0.2,1.3-1.1,2.3-2.4,2.6C313,193,312.9,193,312.7,193z M301.3,159.2l9.7,20.4    c2.2-18.8,3.2-26.7,3.8-30.1c-7.3-28.5-29.6-41.6-69.7-41c-13.2,0.2-24.1,12.5-24.9,28c-1.2,26.1,27.1,28.5,27.4,28.5l1.9,0.2    c10,0.9,25.1,2.2,47.6-8.2c1.4-0.7,3.1-0.1,3.8,1.3C301.1,158.5,301.2,158.9,301.3,159.2z"/><path class="st1" d="M184.1,191.6c-0.2,0-0.3,0-0.5,0c-1.3-0.2-2.3-1.3-2.4-2.6c-0.3-3.2-2.8-31.5-2.8-34.4l0-1.9    c-0.1-9.5-0.2-24,19.5-32.6c10.8-4.8,18.6-5.4,25.1-2c0.8,0.4,1.3,1.1,1.5,1.9c0.2,0.8,0,1.7-0.5,2.4c-3,4.3-3.4,11-3.4,15.7    c0,5.7,1.6,11.1,4.5,15.2c0.8,1.1,0.7,2.6-0.2,3.7c-5.7,6.4-15,13.2-24,13.2c-1.7,0-3.3-0.2-5-0.5l-9.2,20.3    C186.3,190.9,185.3,191.6,184.1,191.6z M214,121.8c-3.2,0-7.6,0.9-13.7,3.6c-16.2,7.1-16.1,17.8-16,27.2l0,1.9    c0,1.5,0.9,12.2,1.8,22.7l5.6-12.3c0.6-1.3,2.1-2,3.5-1.6c1.9,0.6,3.9,0.9,5.8,0.9c5.3,0,12.2-3.7,18.1-9.6    c-2.8-4.8-4.3-10.6-4.3-16.6c0-4.9,0.3-10.8,2.6-15.9C216.4,121.9,215.3,121.8,214,121.8z"/><path class="st1" d="M269.6,149.7c-21.3,0-34.6-15.1-34.7-15.2c-1.1-1.2-0.9-3.1,0.3-4.1c1.2-1.1,3.1-0.9,4.1,0.3    c0.8,0.9,19.2,21.7,48.1,9.3c1.5-0.6,3.2,0,3.9,1.5c0.6,1.5,0,3.2-1.5,3.9C282.4,148.5,275.7,149.7,269.6,149.7z"/></g><path class="st1" d="M178.9,414c-1.6,0-2.9-1.3-2.9-2.9v-14.9c0-1.6,1.3-2.9,2.9-2.9s2.9,1.3,2.9,2.9V411   C181.8,412.7,180.5,414,178.9,414z"/><path class="st1" d="M312.9,414.8c-1.6,0-2.9-1.3-2.9-2.9V397c0-1.6,1.3-2.9,2.9-2.9s2.9,1.3,2.9,2.9v14.9   C315.9,413.5,314.6,414.8,312.9,414.8z"/><path class="st0" d="M332.4,188.3c-1.6,0-2.9-1.3-2.9-2.9v-20.1c0-43.5-36.7-78.9-81.8-78.9c-45.1,0-81.8,35.4-81.8,78.9v19.9   c0,1.6-1.3,2.9-2.9,2.9s-2.9-1.3-2.9-2.9v-19.9c0-46.8,39.3-84.8,87.6-84.8c48.3,0,87.6,38,87.6,84.8v20.1   C335.3,187,334,188.3,332.4,188.3z"/><path class="st0" d="M203.9,270.2c-8.4,0-21.2-1.5-30.1-9.2c-6.8-5.8-10.2-14.2-10.2-24.8c0-1.6,1.3-2.9,2.9-2.9s2.9,1.3,2.9,2.9   c0,8.8,2.7,15.6,8.2,20.3c12.2,10.5,34,7.3,34.2,7.3c1.6-0.2,3.1,0.9,3.3,2.5c0.2,1.6-0.9,3.1-2.5,3.3   C212.4,269.7,208.9,270.2,203.9,270.2z"/><path class="st0" d="M232.4,276.5h-14.8c-4.5,0-8.2-4.4-8.2-9.8c0-5.4,3.7-9.8,8.2-9.8h14.8c4.6,0,8.2,4.3,8.2,9.8   C240.6,272.1,236.9,276.5,232.4,276.5z M217.5,262.8c-1.1,0-2.3,1.7-2.3,3.9c0,2.3,1.2,3.9,2.3,3.9h14.8c1.1,0,2.3-1.7,2.3-3.9   c0-2.3-1.2-3.9-2.3-3.9H217.5z"/></g></svg>